<?xml version="1.0" encoding="utf-8"?>
<!-- Generator: Adobe Illustrator 20.0.0, SVG Export Plug-In . SVG Version: 6.00 Build 0)  -->
<svg version="1.1" id="Layer_1" xmlns="http://www.w3.org/2000/svg" xmlns:xlink="http://www.w3.org/1999/xlink" x="0px" y="0px"
	 viewBox="0 0 178.7 54.9" style="enable-background:new 0 0 178.7 54.9;" xml:space="preserve">
<style type="text/css">
	.st0{fill:#DA1C5C;}
</style>
<path class="st0" d="M94.6,15.1c0,0-0.1,0-0.1,0c0.1,0.5,0.1,0.9,0.1,1.4c0.1,5.7-4.4,10.4-10.1,10.5c-2.4,0-4.6-0.7-6.4-2.1
	c-1.7,2.9-2.6,6.3-2.5,9.9c0.2,10.7,9,19.3,19.7,19.1c10.7-0.2,19.2-9,19-19.8C114.1,23.4,105.3,14.9,94.6,15.1z"/>
<g>
	<path d="M1.5,2.5v6.8H0.7V2.5H1.5z"/>
	<path d="M3.2,5.7c0-0.5,0-0.9,0-1.3h0.8L4,5.2h0c0.2-0.5,0.8-0.9,1.6-0.9c0.7,0,1.7,0.4,1.7,2.1v2.9H6.4V6.5C6.4,5.7,6.1,5,5.3,5
		c-0.6,0-1,0.4-1.2,0.9C4.1,6.1,4,6.2,4,6.4v2.9H3.2V5.7z"/>
	<path d="M9.8,3v1.4h1.3v0.7H9.8v2.6c0,0.6,0.2,1,0.7,1c0.2,0,0.4,0,0.5-0.1l0,0.7c-0.2,0.1-0.4,0.1-0.8,0.1c-0.4,0-0.8-0.1-1-0.4
		C9,8.8,8.9,8.3,8.9,7.8V5.1H8.2V4.4h0.8V3.2L9.8,3z"/>
	<path d="M12.5,7c0,1.2,0.8,1.7,1.7,1.7c0.6,0,1-0.1,1.4-0.3l0.2,0.6c-0.3,0.1-0.9,0.3-1.6,0.3c-1.5,0-2.4-1-2.4-2.5
		s0.9-2.6,2.3-2.6c1.6,0,2,1.4,2,2.3c0,0.2,0,0.3,0,0.4H12.5z M15.1,6.4c0-0.6-0.2-1.4-1.2-1.4c-0.9,0-1.3,0.8-1.4,1.4H15.1z"/>
	<path d="M17.1,5.9c0-0.6,0-1.1,0-1.5h0.8l0,1h0c0.2-0.7,0.8-1.1,1.4-1.1c0.1,0,0.2,0,0.3,0v0.8c-0.1,0-0.2,0-0.3,0
		c-0.6,0-1.1,0.5-1.2,1.1c0,0.1,0,0.3,0,0.4v2.6h-0.9V5.9z"/>
	<path d="M20.4,5.7c0-0.5,0-0.9,0-1.3h0.8l0.1,0.8h0c0.2-0.5,0.8-0.9,1.6-0.9c0.7,0,1.7,0.4,1.7,2.1v2.9h-0.9V6.5
		c0-0.8-0.3-1.4-1.1-1.4c-0.6,0-1,0.4-1.2,0.9c0,0.1-0.1,0.3-0.1,0.4v2.9h-0.9V5.7z"/>
	<path d="M28.8,9.3l-0.1-0.6h0c-0.3,0.4-0.8,0.7-1.5,0.7c-1,0-1.5-0.7-1.5-1.4c0-1.2,1.1-1.8,2.9-1.8V6.1c0-0.4-0.1-1.1-1.1-1.1
		c-0.5,0-0.9,0.1-1.3,0.4L26,4.7c0.4-0.3,1-0.4,1.6-0.4c1.5,0,1.9,1,1.9,2v1.8c0,0.4,0,0.8,0.1,1.2H28.8z M28.7,6.8
		c-1,0-2.1,0.2-2.1,1.1c0,0.6,0.4,0.9,0.8,0.9c0.6,0,1-0.4,1.2-0.8c0-0.1,0.1-0.2,0.1-0.3V6.8z"/>
	<path d="M32,3v1.4h1.3v0.7H32v2.6c0,0.6,0.2,1,0.7,1c0.2,0,0.4,0,0.5-0.1l0,0.7c-0.2,0.1-0.4,0.1-0.8,0.1c-0.4,0-0.8-0.1-1-0.4
		c-0.3-0.3-0.3-0.7-0.3-1.3V5.1h-0.8V4.4h0.8V3.2L32,3z"/>
	<path d="M35.3,3c0,0.3-0.2,0.5-0.6,0.5c-0.3,0-0.5-0.2-0.5-0.5c0-0.3,0.2-0.6,0.6-0.6C35,2.5,35.3,2.7,35.3,3z M34.3,9.3V4.4h0.9
		v4.9H34.3z"/>
	<path d="M41.1,6.8c0,1.8-1.3,2.6-2.4,2.6c-1.3,0-2.4-1-2.4-2.5c0-1.6,1.1-2.6,2.4-2.6C40.1,4.3,41.1,5.3,41.1,6.8z M37.2,6.9
		c0,1.1,0.6,1.9,1.5,1.9c0.9,0,1.5-0.8,1.5-1.9C40.2,6,39.7,5,38.7,5S37.2,5.9,37.2,6.9z"/>
	<path d="M42.2,5.7c0-0.5,0-0.9,0-1.3h0.8L43,5.2h0c0.2-0.5,0.8-0.9,1.6-0.9c0.7,0,1.7,0.4,1.7,2.1v2.9h-0.9V6.5
		c0-0.8-0.3-1.4-1.1-1.4c-0.6,0-1,0.4-1.2,0.9c0,0.1-0.1,0.3-0.1,0.4v2.9h-0.9V5.7z"/>
	<path d="M50.5,9.3l-0.1-0.6h0c-0.3,0.4-0.8,0.7-1.5,0.7c-1,0-1.5-0.7-1.5-1.4c0-1.2,1.1-1.8,2.9-1.8V6.1c0-0.4-0.1-1.1-1.1-1.1
		c-0.5,0-0.9,0.1-1.3,0.4l-0.2-0.6c0.4-0.3,1-0.4,1.6-0.4c1.5,0,1.9,1,1.9,2v1.8c0,0.4,0,0.8,0.1,1.2H50.5z M50.4,6.8
		c-1,0-2.1,0.2-2.1,1.1c0,0.6,0.4,0.9,0.8,0.9c0.6,0,1-0.4,1.2-0.8c0-0.1,0.1-0.2,0.1-0.3V6.8z"/>
	<path d="M52.7,2.1h0.9v7.2h-0.9V2.1z"/>
	<path d="M57.3,2.6c0.5-0.1,1.2-0.1,1.9-0.1c1.3,0,2.2,0.3,2.8,0.9c0.6,0.6,1,1.3,1,2.5c0,1.1-0.3,2-1,2.7c-0.6,0.6-1.7,1-3,1
		c-0.6,0-1.2,0-1.6-0.1V2.6z M58.1,8.6c0.2,0,0.5,0.1,0.9,0.1c1.9,0,2.9-1.1,2.9-2.9c0-1.6-0.9-2.6-2.8-2.6c-0.5,0-0.8,0-1,0.1V8.6z
		"/>
	<path d="M65,3c0,0.3-0.2,0.5-0.6,0.5c-0.3,0-0.5-0.2-0.5-0.5c0-0.3,0.2-0.6,0.6-0.6C64.7,2.5,65,2.7,65,3z M64,9.3V4.4h0.9v4.9H64z
		"/>
	<path d="M66.2,8.4c0.3,0.2,0.7,0.4,1.2,0.4c0.6,0,1-0.3,1-0.7c0-0.4-0.3-0.7-0.9-0.9c-0.9-0.3-1.3-0.8-1.3-1.4
		c0-0.8,0.6-1.4,1.7-1.4c0.5,0,0.9,0.1,1.2,0.3l-0.2,0.6c-0.2-0.1-0.5-0.3-1-0.3C67.3,5,67,5.3,67,5.6c0,0.4,0.3,0.6,0.9,0.8
		c0.9,0.3,1.3,0.7,1.3,1.5c0,0.9-0.7,1.5-1.8,1.5c-0.5,0-1-0.1-1.4-0.3L66.2,8.4z"/>
	<path d="M71.4,3v1.4h1.3v0.7h-1.3v2.6c0,0.6,0.2,1,0.7,1c0.2,0,0.4,0,0.5-0.1l0,0.7c-0.2,0.1-0.4,0.1-0.8,0.1c-0.4,0-0.8-0.1-1-0.4
		c-0.3-0.3-0.3-0.7-0.3-1.3V5.1h-0.8V4.4h0.8V3.2L71.4,3z"/>
	<path d="M73.7,5.9c0-0.6,0-1.1,0-1.5h0.8l0,1h0c0.2-0.7,0.8-1.1,1.4-1.1c0.1,0,0.2,0,0.3,0v0.8c-0.1,0-0.2,0-0.3,0
		c-0.6,0-1.1,0.5-1.2,1.1c0,0.1,0,0.3,0,0.4v2.6h-0.9V5.9z"/>
	<path d="M78,3c0,0.3-0.2,0.5-0.6,0.5c-0.3,0-0.5-0.2-0.5-0.5c0-0.3,0.2-0.6,0.6-0.6C77.8,2.5,78,2.7,78,3z M77,9.3V4.4h0.9v4.9H77z
		"/>
	<path d="M79.4,9.3c0-0.3,0-0.8,0-1.3V2.1h0.9v3.1h0c0.3-0.5,0.9-0.9,1.7-0.9c1.2,0,2.1,1,2.1,2.5c0,1.8-1.1,2.6-2.2,2.6
		c-0.7,0-1.3-0.3-1.6-0.9h0l0,0.8H79.4z M80.3,7.3c0,0.1,0,0.2,0,0.3c0.2,0.6,0.7,1,1.3,1c0.9,0,1.5-0.8,1.5-1.9
		c0-1-0.5-1.8-1.5-1.8c-0.6,0-1.2,0.4-1.4,1.1c0,0.1-0.1,0.2-0.1,0.4V7.3z"/>
	<path d="M89.3,8c0,0.5,0,1,0,1.3h-0.8l-0.1-0.8h0c-0.2,0.4-0.8,0.9-1.6,0.9c-0.8,0-1.7-0.4-1.7-2.1V4.4H86v2.7
		c0,0.9,0.3,1.6,1.1,1.6c0.6,0,1-0.4,1.2-0.8c0.1-0.1,0.1-0.3,0.1-0.5v-3h0.9V8z"/>
	<path d="M91.8,3v1.4h1.3v0.7h-1.3v2.6c0,0.6,0.2,1,0.7,1c0.2,0,0.4,0,0.5-0.1l0,0.7c-0.2,0.1-0.4,0.1-0.8,0.1c-0.4,0-0.7-0.1-1-0.4
		C91.1,8.8,91,8.3,91,7.8V5.1h-0.8V4.4H91V3.2L91.8,3z"/>
	<path d="M98.5,6.8c0,1.8-1.3,2.6-2.4,2.6c-1.3,0-2.4-1-2.4-2.5c0-1.6,1.1-2.6,2.4-2.6C97.5,4.3,98.5,5.3,98.5,6.8z M94.6,6.9
		c0,1.1,0.6,1.9,1.5,1.9c0.9,0,1.5-0.8,1.5-1.9C97.6,6,97.2,5,96.1,5C95.1,5,94.6,5.9,94.6,6.9z"/>
	<path d="M99.6,5.9c0-0.6,0-1.1,0-1.5h0.8l0,1h0c0.2-0.7,0.8-1.1,1.4-1.1c0.1,0,0.2,0,0.3,0v0.8c-0.1,0-0.2,0-0.3,0
		c-0.6,0-1.1,0.5-1.2,1.1c0,0.1,0,0.3,0,0.4v2.6h-0.9V5.9z"/>
</g>
<path d="M11.4,46.8L16.1,15h5.6l-6,39H6.6l-6-39h6.2L11.4,46.8z"/>
<path d="M24.6,15h6.1v39h-6.1V15z"/>
<path d="M35.1,15h9.7c6.1,0,9.1,3.4,9.1,9.6v19.7c0,6.2-3,9.6-9.1,9.6h-9.7V15z M41.3,20.6v27.8h3.5c1.9,0,3.1-1,3.1-3.8V24.4
	c0-2.8-1.2-3.8-3.1-3.8H41.3z"/>
<path d="M64,31.4h8.4V37H64v11.4h10.6V54H57.8V15h16.7v5.6H64V31.4z"/>
<path d="M135.6,24.7v5.1c0,6.2-3,9.6-9.1,9.6h-2.9V54h-6.1V15.1h9C132.6,15.1,135.6,18.5,135.6,24.7z M123.6,20.6v13.2h2.9
	c1.9,0,3-0.9,3-3.7v-5.8c0-2.8-1.1-3.7-3-3.7H123.6z"/>
<path d="M136.9,15.1h18.9v5.6h-6.4V54h-6.1V20.6h-6.4V15.1z"/>
<path d="M164.6,54h-6.1V15.1h6.1v16.7h7V15.1h6.2V54h-6.2V37.3h-7V54z"/>
</svg>
