<?xml version="1.0" encoding="utf-8"?>
<!-- Generator: Adobe Illustrator 20.0.0, SVG Export Plug-In . SVG Version: 6.00 Build 0)  -->
<svg version="1.1" id="Isolation_Mode" xmlns="http://www.w3.org/2000/svg" xmlns:xlink="http://www.w3.org/1999/xlink" x="0px"
	 y="0px" viewBox="0 0 234.8 71.5" style="enable-background:new 0 0 234.8 71.5;" xml:space="preserve">
<style type="text/css">
	.st0{enable-background:new    ;}
	.st1{fill:#FFFFFF;}
	.st2{fill:#EB008B;}
	.st3{fill:none;stroke:#EC1C24;stroke-width:5.3139;stroke-linecap:round;stroke-miterlimit:10;}
	.st4{fill:#00A69C;}
</style>
<g>
	<path d="M234.8,61.8c0,5.3-4.3,9.7-9.6,9.7H9.7c-5.3,0-9.7-4.3-9.7-9.7V9.7C0,4.4,4.3,0,9.7,0h215.5c5.3,0,9.6,4.3,9.6,9.7V61.8
		L234.8,61.8z"/>
	<g class="st0">
		<path class="st1" d="M32.9,39.1c-0.9,0-1.6-0.2-2-0.5c0.2,0.3,0.2,0.7,0.3,1.1c0,0.4,0,0.8-0.2,1.2c-0.1,0.4-0.3,0.7-0.6,0.9
			c-0.3,0.3-0.6,0.4-1,0.4c-0.8,0-1.5-0.2-1.9-0.7c-0.5-0.5-0.8-1.2-1-2.1c0-0.2-0.1-0.4-0.1-0.7c0-0.3,0-0.5,0-0.9
			c-0.7,0-1.1,0.1-1.3,0.4s-0.4,0.7-0.4,1.3v8.7h-1.9l-0.3-8.9c0-0.6,0.1-1.2,0.3-1.7c0.2-0.5,0.5-1,0.9-1.3s0.8-0.7,1.3-0.9
			c0.5-0.2,1.1-0.3,1.6-0.3l0.4-1.2c0.4,0.3,0.9,0.6,1.4,0.8c0.5,0.3,0.9,0.5,1.4,0.8c0.5,0.2,1,0.4,1.5,0.5c0.5,0.1,1,0.2,1.5,0.2
			h0.3v2.7H32.9z M28,37.5c0,0.8,0.1,1.5,0.3,2s0.5,0.7,0.9,0.7c0.3,0,0.5-0.2,0.5-0.7C29.8,38.8,29.2,38.1,28,37.5z"/>
		<path class="st1" d="M38.2,39.1c-1.1,0-1.8-0.4-2.2-1.2c-0.6,0.8-1.5,1.2-2.7,1.2h-0.2c-0.1,0-0.2,0-0.4,0c-0.1,0-0.2-0.1-0.2-0.1
			v-2.4c0-0.1,0.1-0.1,0.2-0.1c0.1,0,0.2,0,0.4,0h0.1c1.2,0,1.8-0.4,1.8-1.2v-0.9l1.9-0.6v0.6c0,1.4,0.5,2.2,1.4,2.2h0.1v2.7H38.2z
			 M38.4,42.1l-1.2,1.6l-1.5-1l-0.9,1.2L33,42.7l1.2-1.6l1.5,1l0.8-1.2L38.4,42.1z"/>
		<path class="st1" d="M38.4,39.1c-0.1,0-0.2,0-0.4,0c-0.1,0-0.2-0.1-0.2-0.1v-2.4c0-0.1,0.1-0.1,0.2-0.1c0.1,0,0.2,0,0.4,0h2.3v2.7
			H38.4z"/>
		<path class="st1" d="M40.7,39.1c-0.1,0-0.2,0-0.4,0c-0.1,0-0.2-0.1-0.2-0.1v-2.4c0-0.1,0.1-0.1,0.2-0.1c0.1,0,0.2,0,0.4,0h2.3v2.7
			H40.7z"/>
		<path class="st1" d="M50.3,39.1c-0.6,0-1.1-0.1-1.6-0.2c-0.5-0.2-1-0.4-1.5-0.6c-0.4,0.3-0.9,0.5-1.4,0.6c-0.5,0.2-1,0.2-1.5,0.2
			h-1.2c-0.1,0-0.2,0-0.4,0c-0.1,0-0.2-0.1-0.2-0.1v-2.4c0-0.1,0.1-0.1,0.2-0.1c0.1,0,0.2,0,0.4,0h1.4h0.7c-0.1-0.2-0.3-0.5-0.3-0.7
			c-0.1-0.2-0.1-0.5-0.1-0.7c0-0.4,0.1-0.8,0.3-1.3s0.4-0.8,0.8-1.2c0.3-0.3,0.7-0.6,1-0.8c0.4-0.2,0.7-0.3,1.1-0.3
			c0.4,0,0.7,0.1,0.9,0.3c0.3,0.2,0.5,0.5,0.6,0.8s0.3,0.7,0.4,1c0.1,0.4,0.1,0.7,0.1,0.9c0,0.3-0.1,0.6-0.2,1s-0.3,0.7-0.6,1.1H51
			v2.7H50.3z M44.9,28.8l1.2-1.6l1.5,1l0.9-1.2l1.8,1.2l-1.2,1.6l-1.5-1L46.7,30L44.9,28.8z M46.2,34.8c0,0.2,0.1,0.4,0.3,0.5
			c0.2,0.2,0.4,0.3,0.7,0.5c0.4-0.2,0.6-0.4,0.9-0.6c0.2-0.2,0.3-0.4,0.3-0.7c0-0.2-0.1-0.5-0.3-0.6c-0.2-0.2-0.4-0.3-0.7-0.3
			c-0.3,0-0.5,0.1-0.8,0.3C46.4,34.4,46.2,34.6,46.2,34.8z"/>
		<path class="st1" d="M56.1,39.1c-1.1,0-1.8-0.4-2.2-1.2c-0.6,0.8-1.5,1.2-2.7,1.2H51c-0.1,0-0.2,0-0.4,0c-0.1,0-0.2-0.1-0.2-0.1
			v-2.4c0-0.1,0.1-0.1,0.2-0.1c0.1,0,0.2,0,0.4,0h0.1c1.2,0,1.8-0.4,1.8-1.2v-0.9l1.9-0.6v0.6c0,1.4,0.5,2.2,1.4,2.2h0.1v2.7H56.1z
			 M51,31.1l1.2-1.6l1.5,1l0.9-1.2l1.8,1.2l-1.2,1.6l-1.5-1l-0.8,1.2L51,31.1z"/>
		<path class="st1" d="M69.5,39.1c-0.5,0-1-0.1-1.3-0.3c-0.4-0.2-0.7-0.5-0.9-0.9c-0.3,0.4-0.6,0.7-1,0.9s-0.8,0.3-1.2,0.3
			c-0.4,0-0.7-0.1-1-0.3c-0.3-0.2-0.6-0.5-0.9-0.9c-0.6,0.8-1.4,1.2-2.3,1.2c-0.4,0-0.7-0.1-1-0.3c-0.3-0.2-0.6-0.5-0.9-0.9
			c-0.5,0.8-1.2,1.2-2.2,1.2h-0.6c-0.1,0-0.2,0-0.4,0c-0.1,0-0.2-0.1-0.2-0.1v-2.4c0-0.1,0.1-0.1,0.2-0.1c0.1,0,0.2,0,0.4,0h0.6
			c0.7,0,1-0.4,1-1.2v-0.8l1.7-0.6v0.5c0,0.7,0.1,1.2,0.4,1.5c0.2,0.3,0.6,0.5,1,0.5c0.9,0,1.4-0.4,1.4-1.2v-0.8l1.7-0.6v0.8
			c0,0.6,0.1,1.1,0.3,1.4s0.6,0.4,1.1,0.4c0.4,0,0.7-0.1,0.9-0.3c0.2-0.2,0.3-0.5,0.3-0.9v-0.8l1.6-0.6v1c0,0.3,0,0.5,0,0.7
			c0,0.2,0.1,0.4,0.1,0.5c0.1,0.1,0.2,0.2,0.4,0.3c0.2,0.1,0.4,0.1,0.7,0.1h0.3v2.7H69.5z"/>
		<path class="st1" d="M69.3,36.6c0-0.1,0.1-0.1,0.2-0.1c0.1,0,0.2,0,0.4,0c0.7,0,1.2-0.1,1.6-0.3c0.4-0.2,0.7-0.4,0.9-0.8
			c0.2-0.3,0.4-0.6,0.6-1c0.2-0.4,0.4-0.7,0.6-1s0.5-0.6,0.8-0.8c0.3-0.2,0.7-0.3,1.1-0.3c0.5,0,0.8,0.1,1.2,0.4
			c0.3,0.3,0.6,0.6,0.8,0.9s0.3,0.8,0.4,1.2C78,35.2,78,35.6,78,36c0,0.3,0,0.6-0.1,0.9c-0.1,0.3-0.2,0.6-0.3,0.9
			c-0.2,0.3-0.4,0.5-0.6,0.7c-0.2,0.2-0.5,0.3-0.9,0.3c-0.5,0-1-0.1-1.6-0.4c-0.5-0.3-1-0.5-1.3-0.9c-0.4,0.5-0.9,0.9-1.4,1.1
			c-0.5,0.3-1.2,0.4-2,0.4c-0.1,0-0.2,0-0.4,0c-0.1,0-0.2-0.1-0.2-0.1V36.6z M75.4,34.4c-0.5-0.1-0.9,0.3-1.2,1.2
			c0.2,0.2,0.5,0.4,0.8,0.5c0.3,0.1,0.6,0.2,0.8,0.3c0.3,0,0.4-0.1,0.5-0.3c0-0.1,0-0.3,0-0.5s-0.1-0.4-0.2-0.5
			c-0.1-0.2-0.2-0.3-0.3-0.4C75.7,34.5,75.6,34.4,75.4,34.4z"/>
		<path class="st1" d="M91.6,35.4c0,0.7-0.1,1.3-0.4,1.8c-0.2,0.5-0.6,0.9-1,1.3c-0.4,0.3-0.9,0.6-1.4,0.7c-0.5,0.2-1.1,0.2-1.7,0.2
			c-0.9,0-1.6-0.1-2.2-0.4c-0.6-0.3-1.1-0.6-1.5-1.1l1.1-2c0.6,0.5,1.4,0.8,2.3,0.8c0.3,0,0.6,0,0.9,0c0.4,0,0.7-0.1,1-0.1
			c0.3-0.1,0.6-0.2,0.8-0.4c0.2-0.2,0.3-0.4,0.3-0.7c0-0.3-0.1-0.6-0.4-1c-0.3-0.4-0.6-0.7-1-1c-0.4-0.3-0.8-0.6-1.2-0.9
			s-0.7-0.5-0.9-0.6l1.1-2.6C90.2,31.1,91.6,33.1,91.6,35.4z"/>
		<path class="st1" d="M99.7,39.1c-0.2,0.6-0.5,1.2-0.9,1.7c-0.4,0.5-0.8,1.1-1.4,1.6c-0.5,0.5-1.1,1-1.7,1.4s-1.3,0.8-1.9,1.2
			l-2-1.5c0.4-0.2,0.9-0.5,1.5-0.8s1.2-0.7,1.7-1.1c0.6-0.4,1.1-0.8,1.6-1.2s0.8-0.8,1-1.3c-0.5,0-1,0-1.5-0.1
			c-0.5-0.1-0.9-0.2-1.2-0.4c-0.3-0.2-0.6-0.5-0.8-0.8c-0.2-0.4-0.3-0.8-0.3-1.4c0-0.4,0.1-0.8,0.2-1.2s0.3-0.8,0.5-1.2
			c0.2-0.4,0.5-0.7,0.8-0.9c0.3-0.3,0.7-0.4,1.1-0.4c0.5,0,0.9,0.1,1.3,0.4c0.4,0.2,0.7,0.5,1,0.9c0.3,0.4,0.5,0.8,0.6,1.2
			s0.2,0.9,0.3,1.3h0.8v2.7H99.7z M97.9,36.4c0-0.2-0.1-0.3-0.2-0.5c-0.1-0.2-0.2-0.4-0.3-0.5c-0.1-0.2-0.3-0.3-0.4-0.4
			s-0.3-0.2-0.5-0.2c-0.3,0-0.5,0.1-0.7,0.3c-0.2,0.2-0.3,0.4-0.3,0.7c0,0.2,0,0.3,0.1,0.4c0.1,0.1,0.2,0.1,0.3,0.2
			c0.2,0,0.4,0.1,0.7,0.1C97,36.4,97.4,36.4,97.9,36.4z"/>
		<path class="st1" d="M100.5,39.1c-0.1,0-0.2,0-0.4,0C100,39,100,39,100,39v-2.4c0-0.1,0.1-0.1,0.2-0.1c0.1,0,0.2,0,0.4,0h2.3v2.7
			H100.5z"/>
		<path class="st1" d="M102.8,39.1c-0.1,0-0.2,0-0.4,0c-0.1,0-0.2-0.1-0.2-0.1v-2.4c0-0.1,0.1-0.1,0.2-0.1c0.1,0,0.2,0,0.4,0h2.3
			v2.7H102.8z"/>
		<path class="st1" d="M105.2,39.1c-0.1,0-0.2,0-0.4,0c-0.1,0-0.2-0.1-0.2-0.1v-2.4c0-0.1,0.1-0.1,0.2-0.1c0.1,0,0.2,0,0.4,0h2.3
			v2.7H105.2z"/>
		<path class="st1" d="M111.6,38.8c-0.5-0.2-0.8-0.5-1.1-0.9c-0.3,0.4-0.7,0.7-1.1,0.9c-0.5,0.2-1.1,0.3-1.8,0.3c-0.1,0-0.2,0-0.4,0
			C107,39,107,39,107,39v-2.4c0-0.1,0.1-0.1,0.2-0.1c0.1,0,0.2,0,0.4,0h0.3c0.4,0,0.7,0,0.9-0.1c0.2-0.1,0.4-0.2,0.5-0.3
			c0.1-0.1,0.2-0.3,0.2-0.5c0-0.2,0-0.5,0-0.9c0-0.2,0-0.6,0-1.2c0-0.6,0-1.4-0.1-2.2c0-0.8-0.1-1.7-0.1-2.7c0-0.9-0.1-1.8-0.1-2.5
			l2.3-0.9v9.3c0,0.7,0.1,1.2,0.4,1.6c0.3,0.4,0.7,0.5,1.3,0.5v2.7C112.7,39.1,112.1,39,111.6,38.8z"/>
		<path class="st1" d="M112.9,36.6c0-0.1,0.1-0.1,0.2-0.1c0.1,0,0.2,0,0.4,0h1.5c0.8,0,1.2-0.2,1.2-0.6c0-0.1,0-0.2,0-0.2
			s-0.1-0.2-0.2-0.4c-0.1-0.2-0.2-0.3-0.4-0.6c-0.2-0.2-0.4-0.5-0.7-0.9l1.5-2.2c0.5,0.4,0.9,0.9,1.1,1.6c0.3,0.7,0.4,1.4,0.4,2.1
			c0,0.6-0.1,1.2-0.3,1.7c-0.2,0.5-0.5,0.9-0.9,1.2c-0.4,0.3-0.8,0.5-1.3,0.7c-0.5,0.2-1,0.2-1.6,0.2h-0.4c-0.1,0-0.2,0-0.4,0
			c-0.1,0-0.2-0.1-0.2-0.1V36.6z M117.1,28.7l-1.4,1.9l-1.9-1.3l1.4-1.9L117.1,28.7z"/>
		<path class="st1" d="M122.3,38.8l-2.4,0.6V26l2.4-0.9V38.8z"/>
		<path class="st1" d="M132.3,35.4c0,0.7-0.1,1.3-0.4,1.8c-0.2,0.5-0.6,0.9-1,1.3c-0.4,0.3-0.9,0.6-1.4,0.7
			c-0.5,0.2-1.1,0.2-1.7,0.2c-0.9,0-1.6-0.1-2.2-0.4c-0.6-0.3-1.1-0.6-1.5-1.1l1.1-2c0.6,0.5,1.4,0.8,2.3,0.8c0.3,0,0.6,0,0.9,0
			c0.4,0,0.7-0.1,1-0.1c0.3-0.1,0.6-0.2,0.8-0.4c0.2-0.2,0.3-0.4,0.3-0.7c0-0.3-0.1-0.6-0.4-1s-0.6-0.7-1-1
			c-0.4-0.3-0.8-0.6-1.2-0.9s-0.7-0.5-0.9-0.6l1.1-2.6C130.9,31.1,132.3,33.1,132.3,35.4z"/>
	</g>
	<g>
		<path class="st2" d="M162.2,49.2c0.5,0,1,0.1,1.5,0.4c0.5,0.3,0.8,0.6,1.1,1.1s0.4,1,0.4,1.5c0,0.7-0.3,1.4-0.8,2.1l0,0
			c-0.7,0.6-1.4,0.8-2.1,0.8c-0.7,0-1.4-0.3-2.1-0.8c-0.6-0.7-0.8-1.4-0.8-2.1c0-0.5,0.1-1,0.4-1.5c0.3-0.5,0.6-0.8,1.1-1.1
			C161.2,49.3,161.7,49.2,162.2,49.2z"/>
		<path class="st2" d="M167.1,42.3c0.5,0,1,0.1,1.5,0.4c0.5,0.3,0.8,0.6,1.1,1.1s0.4,1,0.4,1.5c0,0.7-0.3,1.4-0.8,2.1l0,0
			c-0.7,0.6-1.4,0.8-2.1,0.8c-0.7,0-1.4-0.3-2.1-0.8c-0.6-0.7-0.8-1.4-0.8-2.1c0-0.5,0.1-1,0.4-1.5c0.3-0.5,0.6-0.8,1.1-1.1
			C166.1,42.4,166.6,42.3,167.1,42.3z"/>
		<g>
			<path class="st2" d="M155.7,42.7c-6.7,0-12.1-5.4-12.1-12.1s5.4-12.1,12.1-12.1c6.7,0,12.1,5.4,12.1,12.1S162.4,42.7,155.7,42.7z
				 M155.7,23.7c-3.8,0-6.8,3.1-6.8,6.8s3.1,6.8,6.8,6.8c3.8,0,6.8-3.1,6.8-6.8S159.4,23.7,155.7,23.7z"/>
		</g>
		<g>
			<path class="st2" d="M151.5,55c-0.5,0-1.1-0.2-1.6-0.5c-1.2-0.9-1.5-2.5-0.6-3.7l12.5-17.3c0.9-1.2,2.5-1.5,3.7-0.6
				c1.2,0.9,1.5,2.5,0.6,3.7l-12.5,17.3C153.1,54.6,152.3,55,151.5,55z"/>
		</g>
		<g>
			<path class="st2" d="M172.4,40.3c-0.8,0-1.6-0.4-2.2-1.1l-8.7-12.1c-0.9-1.2-0.6-2.9,0.6-3.7c1.2-0.9,2.9-0.6,3.7,0.6l8.7,12.1
				c0.9,1.2,0.6,2.9-0.6,3.7C173.5,40.1,173,40.3,172.4,40.3z"/>
		</g>
		<path class="st2" d="M199.5,30.5c0-6.7-5.4-12.1-12.1-12.1c-2,0-4.1,0.5-5.9,1.5c-1.3,0.7-1.8,2.3-1,3.6c0.7,1.3,2.3,1.8,3.6,1
			c1-0.6,2.1-0.8,3.3-0.8c3.8,0,6.8,3.1,6.8,6.8c0,1.1-0.3,2.2-0.7,3.1l-12.4,17.2c-0.9,1.2-0.6,2.8,0.6,3.7c0.5,0.3,1,0.5,1.6,0.5
			c0.8,0,1.6-0.4,2.2-1.1l12.4-17.1c0.1-0.1,0.2-0.3,0.3-0.4C199,34.6,199.5,32.6,199.5,30.5z"/>
		<path class="st3" d="M165.3,27.8"/>
		<path class="st4" d="M183.3,32.7l-9.4-13c-0.9-1.2-2.5-1.5-3.7-0.7s-1.5,2.5-0.7,3.8l10.2,14.1l-10.2,14c-0.9,1.2-0.6,2.8,0.6,3.7
			c0.5,0.3,1,0.5,1.6,0.5c0.8,0,1.6-0.4,2.2-1.1l9.5-13.1l1.8-2.5c0.7-1,0.7-2.2,0-3.2L183.3,32.7z"/>
	</g>
</g>
</svg>
