<?xml version="1.0" encoding="utf-8"?>
<!-- Generator: Adobe Illustrator 20.0.0, SVG Export Plug-In . SVG Version: 6.00 Build 0)  -->
<svg version="1.1" id="Layer_1" xmlns="http://www.w3.org/2000/svg" xmlns:xlink="http://www.w3.org/1999/xlink" x="0px" y="0px"
	 viewBox="0 0 327.7 327.7" style="enable-background:new 0 0 327.7 327.7;" xml:space="preserve">
<style type="text/css">
	.st0{fill:#787878;}
</style>
<path class="st0" d="M223.2,98.2c-2.4,0-4.9,0.4-7.6,1.2c-0.1,0-0.2,0.1-0.3,0.1L72.5,154.8c-0.3,0.1-0.6,0.3-0.9,0.5
	c-0.4,0.3-4.2,2.9-4.6,7.8c-0.3,3.8,1.4,7.6,5.2,11.3c8,7.7,26.3,11.1,33.6,12.1l14.8,40.2c0.1,0.2,0.1,0.3,0.2,0.5
	c1.2,2.4,4.7,6.5,10,6.5c3.6,0,7.2-1.8,10.7-5.3l13.1-13.1l35.1,24.8c0,0,0.1,0,0.1,0.1c0.5,0.3,3,1.9,6.4,1.9
	c2.7,0,7.8-1.1,11.3-8.1c4.6-9.2,28-109.7,30.7-121.1c0.1-0.3,0.1-0.7,0.1-1C238.3,103.9,231.9,98.2,223.2,98.2L223.2,98.2z
	 M199.5,229.9c-0.7,1.4-1.9,3.1-3.3,3.1c-0.6,0-1.2-0.3-1.5-0.4l-38.1-26.9c-1.8-1.3-4.2-1.1-5.8,0.5L135.1,222
	c-2.5,2.5-3.9,2.7-4.3,2.7c-0.9,0-1.7-1-1.9-1.4l-15.6-42.4c-0.6-1.6-2-2.7-3.7-2.9c-6.6-0.7-24.9-4-31.1-10c-2.4-2.3-2.5-3.6-2.5-4
	c0-0.4,0.3-0.8,0.5-1l142-55c1.7-0.5,3.3-0.8,4.7-0.8c1.4,0,5.8,0.3,6.1,4.2C218.9,155.8,202.6,223.6,199.5,229.9L199.5,229.9z
	 M199.5,229.9"/>
<path class="st0" d="M209.1,116.9l-90,51.7c-1.9,1.1-2.7,3.4-2,5.5l13.5,36c0.6,1.7,2.1,2.8,3.9,2.9c0.1,0,0.2,0,0.3,0
	c1.6,0,3.2-0.9,4-2.4l15.4-28.6l60.2-58c1.6-1.6,1.8-4.1,0.5-5.9C213.5,116.3,211,115.8,209.1,116.9L209.1,116.9z M147.5,176
	c-0.3,0.3-0.6,0.7-0.8,1.1l-11,20.5l-8.7-23.1l54.9-31.6L147.5,176z M147.5,176"/>
<path class="st0" d="M279.7,48C248.7,17,207.6,0,163.8,0S78.9,17,48,48C17,78.9,0,120.1,0,163.8c0,43.8,17,84.9,48,115.9
	c30.9,30.9,72.1,48,115.8,48c43.8,0,84.9-17,115.9-48c30.9-30.9,48-72.1,48-115.9C327.7,120.1,310.6,78.9,279.7,48L279.7,48z
	 M272.5,272.5c-29,29-67.6,45-108.6,45c-41,0-79.6-16-108.6-45c-29-29-45-67.6-45-108.6c0-41,16-79.6,45-108.6
	c29-29,67.6-45,108.6-45c41,0,79.6,16,108.6,45c29,29,45,67.6,45,108.6C317.4,204.9,301.5,243.4,272.5,272.5L272.5,272.5z
	 M272.5,272.5"/>
<path class="st0" d="M275.2,73.6c-1.8-2.2-5-2.5-7.2-0.8c-2.2,1.8-2.5,5-0.8,7.2c19.1,23.6,29.7,53.4,29.7,83.8
	c0,35.6-13.8,69-39,94.1c-25.1,25.1-58.6,39-94.1,39c-32.8,0-64.3-12-88.7-33.9c-2.1-1.9-5.3-1.7-7.2,0.4c-1.9,2.1-1.7,5.3,0.4,7.2
	c26.3,23.5,60.2,36.5,95.6,36.5c38.3,0,74.3-14.9,101.4-42c27.1-27.1,42-63.1,42-101.4C307.2,131.1,295.8,99,275.2,73.6L275.2,73.6z
	 M275.2,73.6"/>
<path class="st0" d="M30.7,163.8c0-73.4,59.7-133.1,133.1-133.1c32.8,0,64.3,12,88.7,33.9c2.1,1.9,5.3,1.7,7.2-0.4
	c1.9-2.1,1.7-5.3-0.4-7.2c-26.3-23.5-60.2-36.5-95.6-36.5c-38.3,0-74.3,14.9-101.4,42s-42,63.1-42,101.4c0,32.8,11.4,64.9,32,90.3
	c1,1.2,2.5,1.9,4,1.9c1.1,0,2.3-0.4,3.2-1.1c2.2-1.8,2.5-5,0.7-7.2C41.3,224.1,30.7,194.3,30.7,163.8L30.7,163.8z M30.7,163.8"/>
</svg>
