<?xml version="1.0" encoding="utf-8"?>
<!-- Generator: Adobe Illustrator 20.0.0, SVG Export Plug-In . SVG Version: 6.00 Build 0)  -->
<svg version="1.1" id="Layer_1" xmlns="http://www.w3.org/2000/svg" xmlns:xlink="http://www.w3.org/1999/xlink" x="0px" y="0px"
	 viewBox="0 0 109 111" style="enable-background:new 0 0 109 111;" xml:space="preserve">
<style type="text/css">
	.st0{fill:#EB008B;}
	.st1{fill:#FFFFFF;}
	.st2{fill:#00C4B1;}
</style>
<path class="st0" d="M97,111H12c-6.6,0-12-5.4-12-12V12C0,5.4,5.4,0,12,0h85c6.6,0,12,5.4,12,12v87C109,105.6,103.6,111,97,111z"/>
<g>
	<path class="st1" d="M90.8,40.7c0-15.9-13-28.9-28.9-28.9c-4.9,0-9.7,1.2-14,3.6c-3.1,1.7-4.2,5.5-2.5,8.6c1.7,3.1,5.5,4.2,8.6,2.5
		c2.4-1.3,5.1-2,7.8-2c9,0,16.2,7.3,16.2,16.2c0,2.6-0.6,5.1-1.8,7.4L46.7,89c-2.1,2.8-1.4,6.8,1.4,8.8c1.1,0.8,2.4,1.2,3.7,1.2
		c2,0,3.9-0.9,5.1-2.6l29.6-40.8c0.2-0.3,0.5-0.6,0.7-1C89.5,50.4,90.8,45.6,90.8,40.7z"/>
	<path class="st2" d="M52.3,45.8l-22.5-31c-2-2.8-6-3.7-8.8-1.7c-3,2-3.7,6.1-1.6,9l24.4,33.6L19.4,89.2C17.3,92,18,96,20.8,98
		c1.1,0.8,2.4,1.2,3.7,1.2c2,0,3.9-0.9,5.1-2.6l22.7-31.2l4.3-6c1.7-2.3,1.7-5.4,0-7.6L52.3,45.8z"/>
</g>
</svg>
