<?xml version="1.0" encoding="utf-8"?>
<!-- Generator: Adobe Illustrator 20.0.0, SVG Export Plug-In . SVG Version: 6.00 Build 0)  -->
<svg version="1.1" id="Capa_1" xmlns="http://www.w3.org/2000/svg" xmlns:xlink="http://www.w3.org/1999/xlink" x="0px" y="0px"
	 viewBox="31.8 141 350.4 512" style="enable-background:new 31.8 141 350.4 512;" xml:space="preserve">
<path d="M382.2,628.5l-14.8-376.8c-0.5-12.7-10.8-22.6-23.5-22.6h-57.2v-8.5c0-43.9-35.7-79.6-79.6-79.6s-79.6,35.7-79.6,79.6v41.8
	c-9.3,3.1-16,11.9-16,22.3c0,13,10.6,23.5,23.5,23.5s23.5-10.6,23.5-23.5c0-10.4-6.7-19.2-16-22.3v-18.3h104.7
	c4.1,0,7.5-3.4,7.5-7.5c0-4.1-3.4-7.5-7.5-7.5H142.4v-8.5c0-35.6,29-64.6,64.6-64.6s64.6,29,64.6,64.6v41.8
	c-9.3,3.1-16,11.9-16,22.3c0,13,10.6,23.5,23.5,23.5s23.5-10.6,23.5-23.5c0-10.4-6.7-19.2-16-22.3v-18.3h57.2c4.6,0,8.3,3.6,8.5,8.2
	l14.8,376.8c0.1,2.3-0.8,4.6-2.4,6.2c-1.6,1.7-3.8,2.6-6.1,2.6H55.3c-2.3,0-4.5-0.9-6.2-2.6c-1.6-1.7-2.5-3.9-2.4-6.2l14.8-376.8
	c0.2-4.6,3.9-8.2,8.5-8.2h32.7c4.1,0,7.5-3.4,7.5-7.5c0-4.1-3.4-7.5-7.5-7.5H70.1c-12.7,0-23,9.9-23.5,22.6L31.8,628.5
	c-0.3,6.5,2.1,12.6,6.6,17.2s10.5,7.2,17,7.2h303.3c6.5,0,12.5-2.6,17-7.2C380.1,641.1,382.4,635,382.2,628.5z M134.9,293.3
	c-4.7,0-8.5-3.8-8.5-8.5c0-4.7,3.8-8.5,8.5-8.5s8.5,3.8,8.5,8.5C143.4,289.5,139.6,293.3,134.9,293.3z M279.1,293.3
	c-4.7,0-8.5-3.8-8.5-8.5c0-4.7,3.8-8.5,8.5-8.5s8.5,3.8,8.5,8.5C287.7,289.5,283.9,293.3,279.1,293.3z"/>
<g>
	<path d="M311.8,554.1c-15.4,0-28-12.6-28-28c0,0,0-0.1,0-0.1c17.3-18.2,28-42.8,28-69.9c0-55.9-45.5-101.5-101.5-101.5
		c-55.9,0-101.5,45.5-101.5,101.5s45.5,101.5,101.5,101.5c25.7,0,49.2-9.6,67-25.4c2.9,16.4,17.2,28.9,34.4,28.9
		c2,0,3.5-1.6,3.5-3.5C315.3,555.6,313.7,554.1,311.8,554.1L311.8,554.1z M115.9,456.1c0-52.1,42.4-94.4,94.4-94.4
		s94.5,42.4,94.5,94.4s-42.4,94.5-94.5,94.5S115.9,508.2,115.9,456.1L115.9,456.1z M115.9,456.1"/>
	<path d="M210.3,368.7c-48.2,0-87.5,39.2-87.5,87.5c0,48.2,39.2,87.5,87.5,87.5c48.2,0,87.5-39.2,87.5-87.5
		C297.8,407.9,258.5,368.7,210.3,368.7L210.3,368.7z M210.3,536.6c-44.4,0-80.5-36.1-80.5-80.5c0-44.4,36.1-80.5,80.5-80.5
		c44.4,0,80.5,36.1,80.5,80.5C290.8,500.5,254.7,536.6,210.3,536.6L210.3,536.6z M210.3,536.6"/>
	<path d="M252.3,431.6c-1.2,0-2.3,0.1-3.4,0.3l-0.1-0.1l-2.6,0.7c0,0-0.1,0-0.1,0c-1.3,0.3-2.5,0.8-3.7,1.3c-0.1,0-0.1,0.1-0.2,0.1
		c-1.2,0.5-2.3,1.1-3.4,1.9c0,0-0.1,0-0.1,0.1c-1,0.7-1.9,1.4-2.8,2.2c-0.2,0.2-0.4,0.3-0.5,0.5c-0.8,0.8-1.6,1.6-2.3,2.5
		c-0.2,0.2-0.3,0.4-0.4,0.6c-0.7,0.9-1.3,1.9-1.9,2.9c0,0,0,0.1,0,0.1c-0.6,1-1,2.1-1.5,3.3c-0.1,0.2-0.2,0.4-0.2,0.6
		c-0.4,1.1-0.6,2.2-0.9,3.4c0,0.2-0.1,0.4-0.1,0.7c-0.2,1.2-0.3,2.4-0.3,3.7c0,1.3,0.1,2.5,0.3,3.7c0,0.2,0.1,0.4,0.1,0.6
		c0.2,1.2,0.5,2.3,0.9,3.4c0.1,0.2,0.1,0.4,0.2,0.6c0.4,1.1,0.9,2.2,1.5,3.3c0,0,0,0.1,0,0.1c0.6,1,1.2,2,1.9,2.9
		c0.2,0.2,0.3,0.4,0.4,0.6c0.7,0.9,1.5,1.7,2.3,2.5c0.2,0.2,0.4,0.3,0.5,0.5c0.9,0.8,1.8,1.5,2.8,2.2l0.1,0.1
		c1.1,0.7,2.2,1.3,3.4,1.8c0.1,0,0.1,0.1,0.2,0.1c1.2,0.5,2.4,1,3.7,1.3c0,0,0.1,0,0.1,0l2.6,0.7l0.1-0.2c1.1,0.2,2.3,0.3,3.4,0.3
		c13.5,0,24.5-11,24.5-24.5C276.8,442.6,265.8,431.6,252.3,431.6L252.3,431.6z M248.8,456.1c0,5.5-1.2,11-3.5,16
		c-0.9-0.4-1.7-0.9-2.5-1.4c-0.3-0.2-0.5-0.4-0.8-0.6c-0.6-0.4-1.1-0.9-1.6-1.4c-0.2-0.2-0.5-0.4-0.7-0.7c-0.6-0.6-1.1-1.3-1.6-2
		c-0.1-0.1-0.2-0.2-0.3-0.4c-0.5-0.8-1-1.7-1.4-2.6c-0.1-0.3-0.2-0.5-0.3-0.8c-0.3-0.7-0.5-1.4-0.7-2.2c-0.1-0.3-0.1-0.6-0.2-0.9
		c-0.2-1-0.3-2.1-0.3-3.2s0.1-2.1,0.3-3.1c0.1-0.3,0.1-0.6,0.2-0.9c0.2-0.8,0.4-1.5,0.7-2.2c0.1-0.3,0.2-0.5,0.3-0.8
		c0.4-0.9,0.9-1.8,1.4-2.7c0.1-0.1,0.2-0.2,0.3-0.4c0.5-0.7,1-1.3,1.6-2c0.2-0.2,0.5-0.4,0.7-0.7c0.5-0.5,1.1-0.9,1.6-1.4
		c0.3-0.2,0.5-0.4,0.8-0.6c0.8-0.5,1.6-1,2.5-1.4C247.6,445.1,248.8,450.6,248.8,456.1L248.8,456.1z M252.3,473.6
		C252.3,473.6,252.3,473.6,252.3,473.6c2.3-5.5,3.5-11.5,3.5-17.5s-1.3-12-3.6-17.5c0,0,0,0,0.1,0c9.6,0,17.5,7.9,17.5,17.5
		C269.8,465.8,261.9,473.6,252.3,473.6L252.3,473.6z M252.3,473.6"/>
	<path d="M187.5,471.3c0.2-0.2,0.3-0.4,0.4-0.6c0.7-0.9,1.4-1.9,1.9-2.9c0,0,0-0.1,0-0.1c0.6-1,1-2.1,1.4-3.3
		c0.1-0.2,0.2-0.4,0.2-0.6c0.4-1.1,0.7-2.2,0.9-3.4c0-0.2,0.1-0.4,0.1-0.6c0.2-1.2,0.3-2.5,0.3-3.7c0-1.3-0.1-2.5-0.3-3.7
		c0-0.2-0.1-0.4-0.1-0.7c-0.2-1.2-0.5-2.3-0.9-3.4c-0.1-0.2-0.2-0.4-0.2-0.6c-0.4-1.1-0.9-2.2-1.4-3.3c0,0,0-0.1,0-0.1
		c-0.5-1-1.2-2-1.9-2.9c-0.2-0.2-0.3-0.4-0.4-0.6c-0.7-0.9-1.5-1.7-2.3-2.5c-0.2-0.2-0.4-0.3-0.5-0.5c-0.9-0.8-1.8-1.5-2.8-2.2
		c0,0-0.1,0-0.1-0.1c-1.1-0.7-2.2-1.3-3.4-1.9c-0.1,0-0.1,0-0.2-0.1c-1.2-0.5-2.4-1-3.7-1.3c0,0-0.1,0-0.1,0l-2.6-0.7l-0.1,0.1
		c-1.1-0.2-2.2-0.3-3.4-0.3c-13.5,0-24.5,11-24.5,24.5c0,13.5,11,24.5,24.5,24.5c1.2,0,2.3-0.1,3.4-0.3l0.1,0.2l2.6-0.7
		c0,0,0.1,0,0.1,0c1.3-0.3,2.5-0.8,3.7-1.3c0.1,0,0.1,0,0.2-0.1c1.2-0.5,2.3-1.1,3.4-1.9c0,0,0.1,0,0.1,0c1-0.7,1.9-1.4,2.8-2.2
		c0.2-0.2,0.4-0.3,0.5-0.5C186,473,186.8,472.2,187.5,471.3L187.5,471.3z M185.5,459.3c0,0.3-0.1,0.6-0.2,0.9
		c-0.2,0.8-0.4,1.5-0.7,2.2c-0.1,0.3-0.2,0.5-0.3,0.8c-0.4,0.9-0.9,1.8-1.4,2.6c-0.1,0.1-0.2,0.2-0.3,0.4c-0.5,0.7-1,1.4-1.6,2
		c-0.2,0.2-0.5,0.5-0.7,0.7c-0.5,0.5-1.1,0.9-1.6,1.4c-0.3,0.2-0.5,0.4-0.8,0.6c-0.8,0.5-1.6,1-2.5,1.4c-2.3-5-3.5-10.5-3.5-16
		c0-5.5,1.2-11,3.5-16c0.9,0.4,1.7,0.8,2.5,1.4c0.3,0.2,0.5,0.4,0.8,0.6c0.6,0.4,1.1,0.9,1.6,1.4c0.2,0.2,0.5,0.4,0.7,0.7
		c0.6,0.6,1.1,1.3,1.6,2c0.1,0.1,0.2,0.2,0.3,0.4c0.6,0.8,1,1.7,1.4,2.7c0.1,0.3,0.2,0.5,0.3,0.8c0.3,0.7,0.5,1.4,0.7,2.2
		c0.1,0.3,0.2,0.6,0.2,0.9c0.2,1,0.3,2.1,0.3,3.1S185.7,458.3,185.5,459.3L185.5,459.3z M150.8,456.1c0-9.6,7.8-17.5,17.5-17.5
		c0,0,0,0,0,0c-2.3,5.5-3.5,11.5-3.5,17.5s1.2,12,3.5,17.5c0,0,0,0,0,0C158.7,473.6,150.8,465.8,150.8,456.1L150.8,456.1z
		 M150.8,456.1"/>
	<path d="M186,417.6l0.7,2.6c0,0,0,0.1,0,0.1c0.3,1.3,0.8,2.5,1.3,3.7c0,0.1,0.1,0.1,0.1,0.2c0.5,1.2,1.1,2.3,1.9,3.4l0.1,0.1
		c0.7,1,1.4,1.9,2.2,2.8c0.2,0.2,0.3,0.4,0.5,0.5c0.8,0.8,1.6,1.6,2.5,2.3c0.2,0.2,0.4,0.3,0.6,0.4c0.9,0.7,1.9,1.4,2.9,1.9
		c0,0,0.1,0,0.1,0c1,0.6,2.1,1,3.3,1.4c0.2,0.1,0.4,0.2,0.6,0.2c1.1,0.4,2.2,0.7,3.4,0.9c0.2,0,0.4,0.1,0.7,0.1
		c1.2,0.2,2.4,0.3,3.7,0.3c1.3,0,2.5-0.1,3.7-0.3c0.2,0,0.4-0.1,0.6-0.1c1.2-0.2,2.3-0.5,3.4-0.9c0.2-0.1,0.4-0.2,0.6-0.2
		c1.1-0.4,2.2-0.9,3.3-1.4c0,0,0,0,0.1,0c1-0.6,2-1.2,2.9-1.9c0.2-0.2,0.4-0.3,0.6-0.4c0.9-0.7,1.7-1.5,2.5-2.3
		c0.2-0.2,0.3-0.3,0.5-0.5c0.8-0.9,1.5-1.8,2.2-2.8l0.1-0.1c0.7-1.1,1.3-2.2,1.9-3.4c0-0.1,0.1-0.1,0.1-0.2c0.5-1.2,1-2.5,1.3-3.7
		c0,0,0-0.1,0.1-0.1l0.7-2.6l-0.2-0.1c0.2-1.1,0.3-2.2,0.3-3.4c0-13.5-11-24.5-24.5-24.5c-13.5,0-24.5,11-24.5,24.5
		c0,1.2,0.1,2.3,0.3,3.4L186,417.6z M225,423.6c-0.2,0.3-0.4,0.5-0.6,0.8c-0.4,0.6-0.9,1.1-1.4,1.6c-0.2,0.2-0.4,0.5-0.7,0.7
		c-0.6,0.6-1.3,1.1-2,1.6c-0.1,0.1-0.2,0.2-0.4,0.3c-0.8,0.5-1.7,1-2.6,1.4c-0.3,0.1-0.5,0.2-0.8,0.3c-0.7,0.3-1.4,0.5-2.2,0.7
		c-0.3,0.1-0.6,0.2-0.9,0.2c-1,0.2-2.1,0.3-3.2,0.3c-1.1,0-2.1-0.1-3.1-0.3c-0.3,0-0.6-0.1-0.9-0.2c-0.8-0.2-1.5-0.4-2.2-0.7
		c-0.3-0.1-0.5-0.2-0.8-0.3c-0.9-0.4-1.8-0.9-2.7-1.4c-0.1-0.1-0.2-0.2-0.4-0.3c-0.7-0.5-1.3-1-2-1.6c-0.2-0.2-0.4-0.5-0.7-0.7
		c-0.5-0.5-0.9-1.1-1.4-1.6c-0.2-0.3-0.4-0.5-0.6-0.8c-0.5-0.8-1-1.6-1.4-2.5c10-4.6,22-4.6,32,0C225.9,422,225.5,422.8,225,423.6
		L225,423.6z M210.3,396.7c9.7,0,17.5,7.8,17.5,17.5c0,0,0,0,0,0c-11.1-4.5-23.9-4.5-35,0c0,0,0,0,0,0
		C192.8,404.5,200.7,396.7,210.3,396.7L210.3,396.7z M210.3,396.7"/>
	<path d="M234.7,494.6L234,492c0,0,0-0.1,0-0.1c-0.3-1.3-0.8-2.5-1.3-3.7c0,0,0-0.1-0.1-0.2c-0.5-1.2-1.1-2.3-1.9-3.4
		c0,0,0-0.1,0-0.1c-0.7-1-1.4-1.9-2.2-2.8c-0.2-0.2-0.3-0.4-0.5-0.5c-0.8-0.8-1.6-1.6-2.5-2.3c-0.2-0.1-0.4-0.3-0.6-0.4
		c-0.9-0.7-1.9-1.3-2.9-1.9c0,0,0,0-0.1-0.1c-1-0.6-2.1-1-3.3-1.4c-0.2-0.1-0.4-0.2-0.6-0.2c-1.1-0.4-2.2-0.6-3.4-0.9
		c-0.2,0-0.4-0.1-0.7-0.1c-1.2-0.2-2.4-0.3-3.7-0.3c-1.3,0-2.5,0.1-3.7,0.3c-0.2,0-0.4,0.1-0.7,0.1c-1.2,0.2-2.3,0.5-3.4,0.9
		c-0.2,0.1-0.4,0.1-0.6,0.2c-1.1,0.4-2.2,0.9-3.3,1.5c0,0-0.1,0-0.1,0c-1,0.6-2,1.2-2.9,1.9c-0.2,0.1-0.4,0.3-0.6,0.4
		c-0.9,0.7-1.7,1.5-2.5,2.3c-0.2,0.2-0.3,0.4-0.5,0.5c-0.8,0.9-1.5,1.8-2.2,2.8c0,0,0,0.1-0.1,0.1c-0.7,1.1-1.3,2.2-1.9,3.4
		c0,0.1,0,0.1-0.1,0.2c-0.5,1.2-1,2.5-1.3,3.7c0,0,0,0.1,0,0.1l-0.7,2.6l0.1,0.1c-0.2,1.1-0.3,2.3-0.3,3.4c0,13.5,11,24.5,24.5,24.5
		c13.5,0,24.5-11,24.5-24.5c0-1.2-0.1-2.3-0.3-3.4L234.7,494.6z M195.7,488.6c0.2-0.3,0.4-0.5,0.6-0.8c0.4-0.6,0.9-1.1,1.4-1.6
		c0.2-0.2,0.4-0.5,0.7-0.7c0.6-0.6,1.3-1.1,2-1.6c0.1-0.1,0.2-0.2,0.4-0.3c0.8-0.6,1.7-1,2.7-1.4c0.3-0.1,0.5-0.2,0.8-0.3
		c0.7-0.3,1.4-0.5,2.2-0.7c0.3-0.1,0.6-0.2,0.9-0.2c1-0.2,2.1-0.3,3.1-0.3c1.1,0,2.1,0.1,3.2,0.3c0.3,0.1,0.6,0.1,0.9,0.2
		c0.8,0.2,1.5,0.4,2.2,0.7c0.3,0.1,0.5,0.2,0.8,0.3c0.9,0.4,1.8,0.9,2.6,1.4c0.1,0.1,0.2,0.2,0.4,0.3c0.7,0.5,1.4,1,2,1.6
		c0.2,0.2,0.5,0.5,0.7,0.7c0.5,0.5,0.9,1.1,1.4,1.6c0.2,0.3,0.4,0.5,0.6,0.8c0.5,0.8,1,1.6,1.4,2.5c-10,4.6-22,4.6-32,0
		C194.7,490.2,195.1,489.4,195.7,488.6L195.7,488.6z M210.3,515.6c-9.6,0-17.5-7.9-17.5-17.5c0,0,0,0,0-0.1
		c5.5,2.3,11.5,3.6,17.5,3.6c6,0,12-1.3,17.5-3.6c0,0,0,0,0,0.1C227.8,507.7,220,515.6,210.3,515.6L210.3,515.6z M210.3,515.6"/>
</g>
</svg>
