<?xml version="1.0" encoding="utf-8"?>
<!-- Generator: Adobe Illustrator 20.0.0, SVG Export Plug-In . SVG Version: 6.00 Build 0)  -->
<svg version="1.1" id="Layer_1" xmlns="http://www.w3.org/2000/svg" xmlns:xlink="http://www.w3.org/1999/xlink" x="0px" y="0px"
	 viewBox="0 0 36 49" style="enable-background:new 0 0 36 49;" xml:space="preserve">
<style type="text/css">
	.st0{fill:#00C4B1;}
</style>
<g>
	<path class="st0" d="M18,35.4l-8.7-8.7c-0.4-0.4-0.4-1,0-1.4s1-0.4,1.4,0l7.3,7.3l7.3-7.3c0.4-0.4,1-0.4,1.4,0s0.4,1,0,1.4L18,35.4
		z"/>
</g>
<g>
	<path class="st0" d="M18,33.7c-0.6,0-1-0.4-1-1V1c0-0.6,0.4-1,1-1s1,0.4,1,1v31.7C19,33.3,18.6,33.7,18,33.7z"/>
</g>
<g>
	<path class="st0" d="M36,49H0V15h10c0.6,0,1,0.4,1,1s-0.4,1-1,1H2v30h32V17h-8c-0.6,0-1-0.4-1-1s0.4-1,1-1h10V49z"/>
</g>
</svg>
