<?xml version="1.0" encoding="utf-8"?>
<!-- Generator: Adobe Illustrator 20.0.0, SVG Export Plug-In . SVG Version: 6.00 Build 0)  -->
<svg version="1.1" id="Layer_1" xmlns="http://www.w3.org/2000/svg" xmlns:xlink="http://www.w3.org/1999/xlink" x="0px" y="0px"
	 viewBox="0 0 201.8 382.8" style="enable-background:new 0 0 201.8 382.8;" xml:space="preserve">
<style type="text/css">
	.st0{clip-path:url(#SVGID_2_);}
	.st1{clip-path:url(#SVGID_4_);}
</style>
<g>
	<g>
		<defs>
			<rect id="SVGID_1_" x="-0.5" y="0" width="201.8" height="382.8"/>
		</defs>
		<clipPath id="SVGID_2_">
			<use xlink:href="#SVGID_1_"  style="overflow:visible;"/>
		</clipPath>
		<path class="st0" d="M25.6,191L198,18.6c4.2-4.2,4.2-11,0-15.3c-4.2-4.2-11-4.2-15.3,0L2.6,183.4c-4.2,4.2-4.2,11,0,15.3
			l180.1,180c2.1,2.1,4.9,3.2,7.6,3.2c2.7,0,5.5-1,7.6-3.2c4.2-4.2,4.2-11,0-15.3L25.6,191z M25.6,191"/>
	</g>
</g>
<g>
	<g>
		<defs>
			<rect id="SVGID_3_" x="0" y="0" width="201.8" height="382.8"/>
		</defs>
		<clipPath id="SVGID_4_">
			<use xlink:href="#SVGID_3_"  style="overflow:visible;"/>
		</clipPath>
		<path class="st1" d="M3.4,363.4c-4.2,4.2-4.2,11,0,15.3c2.1,2.2,4.9,3.2,7.6,3.2c2.7,0,5.5-1.1,7.6-3.2l180.1-180
			c4.2-4.2,4.2-11,0-15.3L18.6,3.3C14.3-1,7.5-1,3.3,3.3c-4.2,4.2-4.2,11,0,15.3L175.7,191L3.4,363.4z M175.7,191"/>
	</g>
</g>
</svg>
