<?xml version="1.0" encoding="iso-8859-1"?>
<!-- Generator: Adobe Illustrator 20.0.0, SVG Export Plug-In . SVG Version: 6.00 Build 0)  -->
<svg version="1.1" id="Capa_1" xmlns="http://www.w3.org/2000/svg" xmlns:xlink="http://www.w3.org/1999/xlink" x="0px" y="0px"
	 viewBox="121.667 296.307 170.669 201.387" style="enable-background:new 121.667 296.307 170.669 201.387;" xml:space="preserve">
<g>
	<path style="fill:#EB008A;" d="M285.505,360.986c-0.002-0.042-0.015-0.081-0.018-0.122c-0.012-0.141-0.033-0.28-0.063-0.419
		c-0.012-0.057-0.021-0.114-0.036-0.17c-0.047-0.174-0.108-0.345-0.182-0.512c-0.023-0.052-0.051-0.1-0.077-0.15
		c-0.036-0.071-0.067-0.143-0.109-0.212l-10.24-17.067c-0.616-1.029-1.727-1.657-2.927-1.657h-5.803l2.379-10.172
		c0.206-0.881,0.055-1.809-0.423-2.577c-0.478-0.771-1.241-1.318-2.123-1.524l-30.511-7.137
		c-2.817-13.218-14.679-22.962-28.372-22.962c-9.228,0-17.992,4.453-23.441,11.916c-0.161,0.22-0.283,0.455-0.384,0.695
		l-38.359,4.534c-1.871,0.222-3.209,1.918-2.988,3.791l2.77,23.436h-2.45c-1.2,0-2.311,0.628-2.927,1.657l-10.24,17.067
		c-0.05,0.083-0.089,0.169-0.13,0.255c-0.014,0.029-0.031,0.057-0.044,0.086c-0.082,0.181-0.148,0.366-0.198,0.555
		c-0.008,0.031-0.013,0.062-0.02,0.093c-0.04,0.171-0.065,0.345-0.078,0.519c-0.002,0.026-0.01,0.049-0.011,0.075l-6.827,133.12
		c-0.048,0.934,0.29,1.848,0.934,2.526c0.645,0.677,1.539,1.062,2.475,1.062h163.84c0.935,0,1.83-0.384,2.478-1.062
		c0.643-0.678,0.981-1.591,0.934-2.526L285.505,360.986z M174.834,348.232l48.35-11.626l5.083,21.139h-51.145L174.834,348.232z
		 M269.921,347.505l6.144,10.24h-14.007l2.395-10.24H269.921z M255.049,357.745h-19.758l-6.266-26.056
		c-0.212-0.879-0.765-1.64-1.536-2.113c-0.771-0.469-1.696-0.616-2.581-0.406l-5.555,1.336l1.769-7.56l39.883,9.329L255.049,357.745
		z M207,303.133c9.328,0,17.528,5.918,20.736,14.349l-8.383-1.961c-0.881-0.207-1.809-0.053-2.579,0.423
		c-0.768,0.478-1.316,1.241-1.522,2.123l-3.327,14.224l-3.458,0.832l-2.77-23.43c-0.106-0.899-0.565-1.72-1.277-2.28
		c-0.712-0.56-1.611-0.816-2.514-0.71l-8.358,0.988C197.376,304.778,202.102,303.133,207,303.133z M199.318,313.884l2.464,20.848
		l-31.861,7.662c-1.833,0.44-2.961,2.284-2.521,4.117l2.702,11.235h-16.613l-4.482-37.915L199.318,313.884z M144.079,347.505h1.325
		l1.21,10.24h-8.679L144.079,347.505z M128.673,490.867l6.477-126.293h143.701l6.477,126.293H128.673z"/>
	<path style="fill:#EB008A;" d="M232.6,371.4c-5.647,0-10.24,4.593-10.24,10.24c0,4.449,2.856,8.233,6.827,9.643v12.544
		c0,12.233-9.953,22.187-22.187,22.187s-22.187-9.953-22.187-22.187v-12.544c3.971-1.41,6.827-5.194,6.827-9.643
		c0-5.647-4.593-10.24-10.24-10.24c-5.647,0-10.24,4.593-10.24,10.24c0,4.449,2.856,8.233,6.827,9.643v12.544
		c0,15.998,13.015,29.013,29.013,29.013s29.013-13.015,29.013-29.013v-12.544c3.971-1.41,6.827-5.194,6.827-9.643
		C242.84,375.993,238.247,371.4,232.6,371.4z M181.4,378.227c1.882,0,3.413,1.531,3.413,3.413c0,0.624-0.181,1.202-0.474,1.706
		c-0.592-1.015-1.68-1.706-2.939-1.706s-2.347,0.691-2.939,1.706c-0.294-0.504-0.474-1.082-0.474-1.706
		C177.987,379.758,179.518,378.227,181.4,378.227z M235.539,383.346c-0.592-1.015-1.68-1.706-2.939-1.706h-0.263
		c-1.162,0-2.187,0.584-2.803,1.473c-0.216-0.448-0.347-0.943-0.347-1.473c0-1.882,1.531-3.413,3.413-3.413
		c1.882,0,3.413,1.531,3.413,3.413C236.013,382.264,235.833,382.842,235.539,383.346z"/>
</g>
</svg>
