<?xml version="1.0" encoding="utf-8"?>
<!-- Generator: Adobe Illustrator 22.0.1, SVG Export Plug-In . SVG Version: 6.00 Build 0)  -->
<svg version="1.1" id="Livello_1" xmlns="http://www.w3.org/2000/svg" xmlns:xlink="http://www.w3.org/1999/xlink" x="0px" y="0px"
	 viewBox="0 0 141.7 141.7" style="enable-background:new 0 0 141.7 141.7;" xml:space="preserve">
<style type="text/css">
	.st0{fill:#656565;}
</style>
<g id="Livello_34">
	<path class="st0" d="M33.2,75.7l42.2,42.2c2.5,2.5,6.5,2.5,9,0c2.5-2.5,2.5-6.5,0-9L52.8,77.2c0,0,0-0.1,0-0.1l82.2,0
		c3.3,0,6.2-2.4,6.6-5.6c0.5-3.9-2.6-7.2-6.4-7.2l-82.5,0c-0.1,0-0.1-0.1,0-0.1L84,33c2.5-2.5,2.5-6.5,0-9c-2.5-2.5-6.6-2.5-9,0
		L32.7,66.2c-0.1,0.1-0.3,0.3-0.4,0.5c-0.1,0.1-0.1,0.1-0.2,0.2c-0.1,0.1-0.1,0.2-0.2,0.3c-0.1,0.1-0.1,0.2-0.2,0.3
		c-0.1,0.1-0.1,0.2-0.2,0.3c0,0.1-0.1,0.2-0.1,0.3c0,0.1-0.1,0.2-0.1,0.3c0,0.1-0.1,0.2-0.1,0.3c0,0.1-0.1,0.2-0.1,0.3
		c0,0.1,0,0.2-0.1,0.3c0,0.1-0.1,0.2-0.1,0.3c0,0.1,0,0.2-0.1,0.3c0,0.1,0,0.2,0,0.3c0,0.4,0,0.8,0,1.3c0,0.1,0,0.2,0,0.3
		c0,0.1,0,0.2,0.1,0.3c0,0.1,0.1,0.2,0.1,0.3c0,0.1,0,0.2,0.1,0.3c0,0.1,0.1,0.2,0.1,0.3c0,0.1,0.1,0.2,0.1,0.3
		c0,0.1,0.1,0.2,0.1,0.3c0,0.1,0.1,0.2,0.1,0.3c0.1,0.1,0.1,0.2,0.2,0.3c0.1,0.1,0.1,0.2,0.2,0.3c0.1,0.1,0.1,0.2,0.2,0.3
		c0.1,0.1,0.1,0.2,0.2,0.2c0.2,0.2,0.4,0.5,0.7,0.7C33,75.5,33.1,75.6,33.2,75.7 M-0.1,0L0,141.8c0,0,0,0.1,0.1,0.1l76.3,0
		c0,0,0.1,0,0.1-0.1l0-10.8c0,0,0-0.1-0.1-0.1L11,131c0,0-0.1,0-0.1-0.1l0-119.9c0,0,0-0.1,0.1-0.1l65.3,0c0,0,0.1,0,0.1-0.1l0-10.8
		c0,0,0-0.1-0.1-0.1L-0.1,0L-0.1,0z"/>
</g>
<g id="Livello_1_1_">
</g>
</svg>
