<?xml version="1.0" encoding="utf-8"?>
<!-- Generator: Adobe Illustrator 20.0.0, SVG Export Plug-In . SVG Version: 6.00 Build 0)  -->
<svg version="1.1" id="Layer_1" xmlns="http://www.w3.org/2000/svg" xmlns:xlink="http://www.w3.org/1999/xlink" x="0px" y="0px"
	 viewBox="0 0 409.6 409.6" style="enable-background:new 0 0 409.6 409.6;" xml:space="preserve">
<style type="text/css">
	.st0{fill:#787878;}
</style>
<g>
	<path class="st0" d="M349.6,60C310.9,21.3,259.5,0,204.8,0S98.7,21.3,60,60C21.3,98.7,0,150.1,0,204.8c0,54.7,21.3,106.1,60,144.8
		c38.7,38.7,90.1,60,144.8,60c54.7,0,106.1-21.3,144.8-60c38.7-38.7,60-90.1,60-144.8C409.6,150.1,388.3,98.7,349.6,60L349.6,60z
		 M340.6,340.6c-36.3,36.3-84.5,56.2-135.8,56.2c-51.3,0-99.5-20-135.8-56.2c-36.3-36.3-56.2-84.5-56.2-135.8
		c0-51.3,20-99.5,56.2-135.8s84.5-56.2,135.8-56.2c51.3,0,99.5,20,135.8,56.2c36.3,36.3,56.2,84.5,56.2,135.8
		C396.8,256.1,376.8,304.3,340.6,340.6L340.6,340.6z M340.6,340.6"/>
	<path class="st0" d="M344,92c-2.2-2.7-6.3-3.2-9-0.9c-2.7,2.2-3.2,6.3-0.9,9c23.9,29.5,37.1,66.7,37.1,104.8
		c0,44.5-17.3,86.2-48.7,117.7s-73.2,48.7-117.7,48.7c-41,0-80.4-15-110.9-42.4c-2.6-2.4-6.7-2.1-9,0.5c-2.4,2.6-2.1,6.7,0.5,9
		c32.9,29.4,75.3,45.6,119.5,45.6c47.9,0,92.9-18.6,126.7-52.5c33.8-33.8,52.5-78.8,52.5-126.7C384,163.8,369.8,123.7,344,92L344,92
		z M344,92"/>
	<path class="st0" d="M38.4,204.8C38.4,113,113,38.4,204.8,38.4c41,0,80.4,15,110.9,42.4c2.6,2.4,6.7,2.1,9-0.5
		c2.4-2.6,2.1-6.7-0.5-9C291.4,41.8,249,25.6,204.8,25.6c-47.9,0-92.9,18.6-126.7,52.5c-33.8,33.8-52.5,78.8-52.5,126.7
		c0,41,14.2,81.1,40,112.8c1.3,1.6,3.1,2.4,5,2.4c1.4,0,2.8-0.5,4-1.4c2.7-2.2,3.2-6.3,0.9-9C51.6,280.1,38.4,242.9,38.4,204.8
		L38.4,204.8z M38.4,204.8"/>
	<path class="st0" d="M318.9,155.8c1.6-2.4,1.4-5.5-0.4-7.7c-1.8-2.2-4.9-2.9-7.5-1.7c-0.2,0.1-0.3,0.1-0.5,0.2
		c1.5-2.7,2.8-5.6,3.7-8.5c0.8-2.5,0-5.3-2.1-7c-2.1-1.7-5-1.9-7.3-0.5c-6.5,3.8-13.4,6.6-20.6,8.4c-8.6-7.8-20-12.2-31.7-12.2
		c-26,0-47.1,21.1-47.1,47.1c0,0.7,0,1.5,0.1,2.2c-27.9-3.4-53.6-17.5-71.5-39.5c-1.3-1.6-3.4-2.5-5.5-2.3c-2.1,0.2-4,1.3-5,3.2
		c-4.2,7.2-6.4,15.3-6.4,23.7c0,8,2,15.6,5.6,22.4c-1,0.1-1.9,0.4-2.8,0.9c-2,1.2-3.2,3.2-3.2,5.5v0.5c0,14.1,6.3,27,16.5,35.8
		c-0.2,0.2-0.4,0.4-0.6,0.6c-1.5,1.7-2,4-1.3,6.2c4.4,13.7,14.6,24.3,27.4,29.4c-10.4,5.2-21.9,8-33.9,8c-3,0-6-0.2-9-0.5
		c-3-0.3-5.8,1.4-6.8,4.2c-1,2.8,0.1,5.9,2.6,7.5c19.7,12.6,42.5,19.3,65.9,19.3c46,0,74.7-21.7,90.8-39.9
		c20-22.7,31.4-52.7,31.4-82.3c0-0.7,0-1.4,0-2.1C307.2,170.6,313.7,163.7,318.9,155.8L318.9,155.8z M289.5,168.1
		c-1.8,1.3-2.8,3.3-2.6,5.5c0.1,1.6,0.1,3.2,0.1,4.9c0,26.6-10.3,53.5-28.2,73.8c-14.3,16.2-40,35.6-81.2,35.6
		c-12.6,0-25-2.2-36.7-6.4c14-2.5,27.1-8.4,38.5-17.4c2.1-1.7,3-4.5,2.1-7.1c-0.9-2.6-3.2-4.3-5.9-4.4c-11.3-0.2-21.5-5.9-27.6-14.8
		c3.2-0.2,6.4-0.7,9.5-1.6c2.9-0.8,4.8-3.4,4.7-6.4c-0.1-3-2.2-5.5-5.1-6.1c-12.8-2.6-22.7-12.1-26.2-24.2c3.4,0.9,6.9,1.4,10.5,1.5
		c2.9,0.1,5.4-1.7,6.3-4.4c0.9-2.7-0.2-5.7-2.5-7.3c-9.6-6.4-15.3-17.1-15.3-28.6c0-2.9,0.4-5.8,1.1-8.6
		c21.4,22.1,50.6,35.5,81.6,37.1c2,0.1,3.9-0.8,5.2-2.3c1.3-1.5,1.8-3.6,1.3-5.6c-0.6-2.5-0.9-5.2-0.9-7.8
		c0-18.9,15.4-34.3,34.3-34.3c9.4,0,18.6,3.9,25.1,10.8c1.5,1.6,3.7,2.3,5.9,1.9c2.4-0.5,4.8-1,7.2-1.7c-1.2,0.9-2.4,1.8-3.8,2.6
		c-2.6,1.6-3.7,4.7-2.8,7.6c1,2.9,3.8,4.6,6.8,4.3c1-0.1,2.1-0.3,3.1-0.4C292.6,165.8,291.1,167,289.5,168.1L289.5,168.1z
		 M289.5,168.1"/>
</g>
</svg>
